<?xml version="1.0" encoding="UTF-8" standalone="no"?>
<!-- Created with Inkscape (http://www.inkscape.org/) -->

<svg
   xmlns:dc="http://purl.org/dc/elements/1.1/"
   xmlns:cc="http://creativecommons.org/ns#"
   xmlns:rdf="http://www.w3.org/1999/02/22-rdf-syntax-ns#"
   xmlns:svg="http://www.w3.org/2000/svg"
   xmlns="http://www.w3.org/2000/svg"
   xmlns:sodipodi="http://sodipodi.sourceforge.net/DTD/sodipodi-0.dtd"
   xmlns:inkscape="http://www.inkscape.org/namespaces/inkscape"
   width="129.39084mm"
   height="129.44092mm"
   viewBox="0 0 129.39084 129.44092"
   version="1.1"
   id="svg8"
   inkscape:version="0.92.1 r15371">
  <defs
     id="defs2" />
  <sodipodi:namedview
     id="base"
     pagecolor="#ffffff"
     bordercolor="#666666"
     borderopacity="1.0"
     inkscape:pageopacity="0.0"
     inkscape:pageshadow="2"
     inkscape:zoom="0.35"
     inkscape:cx="172.08372"
     inkscape:cy="410.15861"
     inkscape:document-units="mm"
     inkscape:current-layer="layer1"
     showgrid="false"
     inkscape:window-width="1366"
     inkscape:window-height="705"
     inkscape:window-x="-8"
     inkscape:window-y="-8"
     inkscape:window-maximized="1"
     fit-margin-top="0"
     fit-margin-left="0"
     fit-margin-right="0"
     fit-margin-bottom="0" />
  <metadata
     id="metadata5">
    <rdf:RDF>
      <cc:Work
         rdf:about="">
        <dc:format>image/svg+xml</dc:format>
        <dc:type
           rdf:resource="http://purl.org/dc/dcmitype/StillImage" />
        <dc:title></dc:title>
      </cc:Work>
    </rdf:RDF>
  </metadata>
  <g
     inkscape:label="Layer 1"
     inkscape:groupmode="layer"
     id="layer1"
     transform="translate(-60.302849,-127.91354)">
    <path
       style="fill:#000000;stroke-width:0.26458335"
       d="M 119.83735,257.27326 C 103.61989,255.58021 90.20922,249.37159 79.357449,238.53265 69.15565,228.34291 63.013432,216.12871 60.789647,201.60936 60.14093,197.37381 60.140505,187.85808 60.788843,183.61769 62.989214,169.2264 69.180051,156.86735 79.2153,146.8321 c 10.034338,-10.03433 22.36366,-16.21119 36.78559,-18.42918 4.24272,-0.6525 13.74895,-0.6525 17.99167,0 14.42193,2.21799 26.75125,8.39485 36.78559,18.42918 10.03565,10.03565 16.23245,22.40739 18.42529,36.78559 0.65187,4.2742 0.65412,13.78383 0.004,17.99167 -2.23726,14.48629 -8.36554,26.71526 -18.43271,36.78243 -9.9953,9.9953 -22.3441,16.21286 -36.51785,18.38653 -2.66607,0.40887 -12.13205,0.73377 -14.41979,0.49494 z m 13.3194,-3.17943 c 6.4614,-0.79625 12.56699,-2.65051 18.95977,-5.75808 12.57631,-6.11341 22.45521,-15.99382 28.5981,-28.60243 4.33899,-8.90603 6.25958,-17.22703 6.25958,-27.1198 0,-9.89276 -1.92059,-18.21376 -6.25958,-27.11978 -6.14289,-12.60862 -16.02179,-22.48902 -28.5981,-28.60244 -8.92597,-4.33896 -17.23408,-6.25525 -27.11979,-6.25525 -9.88571,0 -18.19383,1.91629 -27.119797,6.25525 -12.576307,6.11342 -22.455214,15.99382 -28.5981,28.60244 -4.338995,8.90602 -6.259584,17.22702 -6.259584,27.11978 0,9.89277 1.920589,18.21377 6.259584,27.1198 6.142886,12.60861 16.021793,22.48902 28.5981,28.60243 11.329307,5.50724 22.508817,7.33187 35.279817,5.75808 z M 94.769576,232.10132 c -1.613527,-1.00043 -1.522851,1.276 -1.522851,-38.23188 v -36.10266 l 0.603231,-0.89902 c 0.407591,-0.60746 0.943898,-0.99567 1.653646,-1.19703 0.926886,-0.26296 56.263858,-4.89965 58.147408,-4.87217 1.15785,0.0169 2.30699,0.75194 2.71969,1.73967 0.56247,1.34619 0.56368,72.18693 0.001,73.53301 -0.45898,1.09849 -1.25753,1.64893 -2.73408,1.8846 -1.10383,0.17619 -1.12448,0.19876 -1.12448,1.22933 0,1.25535 -0.59685,2.35628 -1.59804,2.9477 -0.66564,0.3932 -3.23067,0.4321 -28.07612,0.4257 -25.276737,-0.007 -27.398436,-0.0411 -28.069658,-0.45725 z m 53.445294,-38.09873 0.0671,-35.78489 H 122.21955 96.157141 v 35.67464 c 0,19.62106 0.07996,35.75462 0.177686,35.85234 0.09773,0.0977 11.795623,0.14734 25.995313,0.11025 l 25.81763,-0.0675 z m -42.59352,26.93032 c -1.0027,-0.78872 -1.33588,-1.87722 -1.21724,-3.97673 0.0948,-1.67756 0.18935,-1.94485 0.96112,-2.71674 l 0.856,-0.85612 15.61863,-0.0723 c 13.61465,-0.063 15.72877,-0.0201 16.47698,0.335 1.32616,0.62931 1.76114,1.61028 1.76114,3.97178 0,1.96285 -0.0324,2.06854 -0.89959,2.93574 l -0.89958,0.89958 h -15.99807 c -15.50551,0 -16.01843,-0.016 -16.65939,-0.5202 z m 31.75923,-3.51687 0.0807,-1.25895 -15.16198,0.0683 -15.16198,0.0683 -0.0848,0.88509 c -0.16803,1.75398 -1.28135,1.63958 15.22472,1.5645 l 15.02257,-0.0683 z m -19.5276,-15.69317 c -0.80037,-0.20946 -2.46724,-0.87436 -3.70417,-1.47756 -3.1751,-1.54836 -6.34038,-4.71108 -7.90276,-7.89637 -3.555,-7.24773 -1.91832,-15.93638 4.01411,-21.30979 2.02068,-1.83026 5.6774,-3.68545 8.38657,-4.25482 4.36549,-0.91748 9.54726,0.072 13.33531,2.54637 8.80082,5.74877 10.74289,17.51234 4.30505,26.07656 -2.18647,2.90866 -6.14256,5.47876 -9.7379,6.32629 -2.12391,0.50067 -6.76404,0.49497 -8.69621,-0.0107 z m 7.29359,-2.51298 c 0.86347,-0.15553 2.56677,-0.76129 3.7851,-1.34612 3.99851,-1.9194 6.83645,-5.44321 7.9778,-9.90586 1.33639,-5.22523 -0.0618,-10.21882 -3.96464,-14.15995 -3.17938,-3.21054 -6.43643,-4.57221 -10.85852,-4.5396 -7.22998,0.0533 -13.1751,5.00476 -14.71078,12.25197 -1.3182,6.22084 1.83313,12.91143 7.56703,16.06556 3.16675,1.74198 6.57483,2.28773 10.20401,1.634 z m 28.68974,-9.9331 V 153.3963 l -0.8599,0.14318 c -0.47294,0.0788 -4.84849,0.47895 -9.72343,0.88934 l -8.86355,0.74617 7.27605,0.13229 c 6.65565,0.12101 7.34116,0.17638 8.03974,0.64939 1.55836,1.05517 1.48526,-0.70298 1.48526,35.72231 v 33.4783 h 1.32291 1.32292 z"
       id="path21"
       inkscape:connector-curvature="0" />
  </g>
</svg>
