<?xml version="1.0" encoding="UTF-8" standalone="no"?>
<!-- Created with Inkscape (http://www.inkscape.org/) -->

<svg
   xmlns:dc="http://purl.org/dc/elements/1.1/"
   xmlns:cc="http://creativecommons.org/ns#"
   xmlns:rdf="http://www.w3.org/1999/02/22-rdf-syntax-ns#"
   xmlns:svg="http://www.w3.org/2000/svg"
   xmlns="http://www.w3.org/2000/svg"
   xmlns:sodipodi="http://sodipodi.sourceforge.net/DTD/sodipodi-0.dtd"
   xmlns:inkscape="http://www.inkscape.org/namespaces/inkscape"
   width="124.62644mm"
   height="124.66628mm"
   viewBox="0 0 124.62645 124.66628"
   version="1.1"
   id="svg8"
   inkscape:version="0.92.1 r15371">
  <defs
     id="defs2" />
  <sodipodi:namedview
     id="base"
     pagecolor="#ffffff"
     bordercolor="#666666"
     borderopacity="1.0"
     inkscape:pageopacity="0.0"
     inkscape:pageshadow="2"
     inkscape:zoom="0.35"
     inkscape:cx="572.1845"
     inkscape:cy="403.71103"
     inkscape:document-units="mm"
     inkscape:current-layer="layer1"
     showgrid="false"
     inkscape:window-width="1366"
     inkscape:window-height="705"
     inkscape:window-x="-8"
     inkscape:window-y="-8"
     inkscape:window-maximized="1"
     fit-margin-top="0"
     fit-margin-left="0"
     fit-margin-right="0"
     fit-margin-bottom="0" />
  <metadata
     id="metadata5">
    <rdf:RDF>
      <cc:Work
         rdf:about="">
        <dc:format>image/svg+xml</dc:format>
        <dc:type
           rdf:resource="http://purl.org/dc/dcmitype/StillImage" />
        <dc:title></dc:title>
      </cc:Work>
    </rdf:RDF>
  </metadata>
  <g
     inkscape:label="Layer 1"
     inkscape:groupmode="layer"
     id="layer1"
     transform="translate(45.557146,-130.98226)">
    <path
       style="fill:#000000;stroke-width:0.26458335"
       d="m 11.861327,255.57647 c -17.4095599,-1.75496 -32.13072,-9.34709 -42.78875,-22.06741 -7.61432,-9.08766 -12.26979,-19.37213 -14.13273,-31.22083 -0.66482,-4.22837 -0.66215,-13.70265 0.005,-17.99167 2.45596,-15.78752 10.41147,-29.68537 22.65287,-39.57333 8.68973,-7.0191 18.8463201,-11.47848 30.1625001,-13.24321 4.2558099,-0.66368 13.7358599,-0.66368 17.9916699,0 17.36144,2.70748 32.31814,12.00839 42.38633,26.35821 5.20213,7.4144 8.94281,16.90444 10.42904,26.45833 0.66722,4.28902 0.66988,13.7633 0.005,17.99167 -1.24271,7.90384 -3.81038,15.30038 -7.60455,21.90596 -9.58836,16.69313 -26.01044,27.94315 -45.0836,30.88472 -2.53519,0.39099 -11.81406,0.72022 -14.02291,0.49756 z m 14.2875,-3.26008 c 6.32422,-1.05632 10.99417,-2.54185 16.66875,-5.30241 12.1559,-5.91357 21.73668,-15.49363 27.66219,-27.66013 2.78224,-5.71259 4.36805,-10.79344 5.45032,-17.4625 0.65953,-4.06403 0.65953,-13.13388 0,-17.19791 -1.08227,-6.66906 -2.66808,-11.74991 -5.45032,-17.4625 -5.92487,-12.1652 -15.497,-21.73732 -27.66219,-27.6622 -5.7126,-2.78223 -10.79345,-4.36805 -17.4625,-5.45032 -4.06404,-0.65952 -13.13389,-0.65952 -17.1979199,0 -6.66906,1.08227 -11.74991,2.66809 -17.4625,5.45032 -12.1651901,5.92488 -21.7373201,15.497 -27.6622001,27.6622 -2.78223,5.71259 -4.36804,10.79344 -5.45032,17.4625 -0.65952,4.06403 -0.65952,13.13388 0,17.19791 1.08228,6.66906 2.66809,11.74991 5.45032,17.4625 5.92488,12.1652 15.49701,21.73732 27.6622001,27.6622 6.70387,3.26502 13.75365,5.22103 21.2989599,5.90953 2.84765,0.25985 11.07114,-0.0941 14.15521,-0.60919 z m -47.7573,-28.46462 v -2.7799 l 38.43073,0.067 38.43073,0.067 v 2.64583 2.64583 l -38.43073,0.067 -38.43073,0.067 z m 0,-16.00729 v -2.64583 h 38.49688 38.49688 v 2.64583 2.64583 h -38.49688 -38.49688 z m 34.39584,-15.875 v -2.64584 h 21.29896 21.29896 v 2.64584 2.64583 h -21.29896 -21.29896 z m -31.05553,-0.3887 c -0.56393,-0.20102 -1.4304,-0.75809 -1.92548,-1.23794 -1.62483,-1.57485 -1.67941,-2.08295 -1.67941,-15.63443 0,-8.37616 0.0957,-12.51814 0.30891,-13.36472 0.41818,-1.66075 2.06497,-3.30754 3.72572,-3.72572 1.9744,-0.49716 19.8266601,-0.42305 21.5525101,0.0895 1.58843,0.47171 3.0714,1.9494 3.49795,3.48549 0.38062,1.3707 0.38347,25.51172 0.003,26.88117 -0.36118,1.30061 -1.69063,2.79595 -3.02453,3.40193 -0.96785,0.43968 -1.95141,0.48131 -11.24706,0.47602 -7.9826701,-0.005 -10.4082801,-0.0849 -11.2117801,-0.37128 z m 22.2523801,-3.12286 0.73336,-0.73344 0.0735,-12.69299 c 0.0819,-14.13534 0.1018,-13.9602 -1.67013,-14.70056 -1.33976,-0.55979 -19.3031601,-0.54994 -20.6464501,0.0113 -1.69134,0.70669 -1.70182,0.79508 -1.70136,14.35467 2.7e-4,11.00368 0.0428,12.19767 0.46302,13.03555 0.80502,1.60505 0.7652,1.59994 11.9000901,1.52603 l 10.11456,-0.0671 z m 8.8031499,-12.36344 v -2.64584 h 21.29896 21.29896 v 2.64584 2.64583 h -21.29896 -21.29896 z m 0,-16.13959 v -2.64583 h 21.29896 21.29896 v 2.64583 2.64584 h -21.29896 -21.29896 z"
       id="path60"
       inkscape:connector-curvature="0" />
  </g>
</svg>
