<?xml version="1.0" encoding="UTF-8" standalone="no"?>
<!-- Created with Inkscape (http://www.inkscape.org/) -->

<svg
   xmlns:dc="http://purl.org/dc/elements/1.1/"
   xmlns:cc="http://creativecommons.org/ns#"
   xmlns:rdf="http://www.w3.org/1999/02/22-rdf-syntax-ns#"
   xmlns:svg="http://www.w3.org/2000/svg"
   xmlns="http://www.w3.org/2000/svg"
   xmlns:sodipodi="http://sodipodi.sourceforge.net/DTD/sodipodi-0.dtd"
   xmlns:inkscape="http://www.inkscape.org/namespaces/inkscape"
   width="125.30771mm"
   height="97.631248mm"
   viewBox="0 0 125.30771 97.631248"
   version="1.1"
   id="svg8"
   inkscape:version="0.92.1 r15371">
  <defs
     id="defs2" />
  <sodipodi:namedview
     id="base"
     pagecolor="#ffffff"
     bordercolor="#666666"
     borderopacity="1.0"
     inkscape:pageopacity="0.0"
     inkscape:pageshadow="2"
     inkscape:zoom="0.35"
     inkscape:cx="384.07665"
     inkscape:cy="-63.857134"
     inkscape:document-units="mm"
     inkscape:current-layer="layer1"
     showgrid="false"
     fit-margin-top="0"
     fit-margin-left="0"
     fit-margin-right="0"
     fit-margin-bottom="0"
     inkscape:window-width="1366"
     inkscape:window-height="705"
     inkscape:window-x="-8"
     inkscape:window-y="-8"
     inkscape:window-maximized="1" />
  <metadata
     id="metadata5">
    <rdf:RDF>
      <cc:Work
         rdf:about="">
        <dc:format>image/svg+xml</dc:format>
        <dc:type
           rdf:resource="http://purl.org/dc/dcmitype/StillImage" />
        <dc:title></dc:title>
      </cc:Work>
    </rdf:RDF>
  </metadata>
  <g
     inkscape:label="Layer 1"
     inkscape:groupmode="layer"
     id="layer1"
     transform="translate(-4.213052,-34.306551)">
    <path
       style="fill:#000000;stroke-width:0.26458335"
       d="M 32.156695,106.33936 C 19.897895,92.260221 8.5787552,79.260001 7.0030452,77.449991 c -1.57571,-1.81002 -2.83075,-3.43834 -2.78898,-3.6185 0.093,-0.40092 13.9745298,-16.3739 14.2299798,-16.3739 0.12333,0 36.26454,41.33685 38.23777,43.734819 0.0356,0.0432 13.18376,-14.988429 29.21823,-33.403649 16.034465,-18.41521 29.255025,-33.48221 29.379005,-33.48221 0.39029,0 14.32785,16.15535 14.24131,16.50743 -0.10858,0.44172 -70.370965,81.123819 -70.647055,81.123819 -0.11703,0 -0.64535,-0.4788 -1.17404,-1.064 l -0.96127,-1.06401 -0.91075,1.06401 c -0.50091,0.5852 -1.01673,1.064 -1.14628,1.064 -0.12954,0 -10.26546,-11.51929 -22.52427,-25.59844 z"
       id="path21"
       inkscape:connector-curvature="0" />
  </g>
</svg>
