<?xml version="1.0" encoding="UTF-8" standalone="no"?>
<!-- Created with Inkscape (http://www.inkscape.org/) -->

<svg
   xmlns:dc="http://purl.org/dc/elements/1.1/"
   xmlns:cc="http://creativecommons.org/ns#"
   xmlns:rdf="http://www.w3.org/1999/02/22-rdf-syntax-ns#"
   xmlns:svg="http://www.w3.org/2000/svg"
   xmlns="http://www.w3.org/2000/svg"
   xmlns:sodipodi="http://sodipodi.sourceforge.net/DTD/sodipodi-0.dtd"
   xmlns:inkscape="http://www.inkscape.org/namespaces/inkscape"
   width="6.6145802mm"
   height="128.05833mm"
   viewBox="0 0 6.6145802 128.05833"
   version="1.1"
   id="svg8"
   inkscape:version="0.92.1 r15371">
  <defs
     id="defs2" />
  <sodipodi:namedview
     id="base"
     pagecolor="#ffffff"
     bordercolor="#666666"
     borderopacity="1.0"
     inkscape:pageopacity="0.0"
     inkscape:pageshadow="2"
     inkscape:zoom="0.35"
     inkscape:cx="-90.71428"
     inkscape:cy="483.57141"
     inkscape:document-units="mm"
     inkscape:current-layer="layer1"
     showgrid="false"
     fit-margin-top="0"
     fit-margin-left="0"
     fit-margin-right="0"
     fit-margin-bottom="0"
     inkscape:window-width="1366"
     inkscape:window-height="705"
     inkscape:window-x="-8"
     inkscape:window-y="-8"
     inkscape:window-maximized="1" />
  <metadata
     id="metadata5">
    <rdf:RDF>
      <cc:Work
         rdf:about="">
        <dc:format>image/svg+xml</dc:format>
        <dc:type
           rdf:resource="http://purl.org/dc/dcmitype/StillImage" />
        <dc:title></dc:title>
      </cc:Work>
    </rdf:RDF>
  </metadata>
  <g
     inkscape:label="Layer 1"
     inkscape:groupmode="layer"
     id="layer1"
     transform="translate(-129.83482,-148.71993)">
    <path
       style="fill:#000000;stroke-width:0.26458335"
       d="m 129.83482,273.86785 v -2.91042 h 3.30729 3.30729 v 2.91042 2.91042 h -3.30729 -3.30729 z m 0,-21.96042 v -3.175 h 3.30729 3.30729 v 3.175 3.175 h -3.30729 -3.30729 z m 0,-18.25625 v -2.91041 h 3.30729 3.30729 v 2.91041 2.91042 h -3.30729 -3.30729 z m 0,-22.09271 v -3.04271 h 3.30729 3.30729 v 3.04271 3.04271 h -3.30729 -3.30729 z m 0,-18.38854 v -3.175 h 3.30729 3.30729 v 3.175 3.175 h -3.30729 -3.30729 z m 0,-21.16667 v -2.91041 h 3.30729 3.30729 v 2.91041 2.91042 h -3.30729 -3.30729 z m 0,-20.90208 v -2.38125 h 3.30729 3.30729 v 2.38125 2.38125 h -3.30729 -3.30729 z"
       id="path37"
       inkscape:connector-curvature="0" />
  </g>
</svg>
