<?xml version="1.0" encoding="UTF-8" standalone="no"?>
<!-- Created with Inkscape (http://www.inkscape.org/) -->

<svg
   xmlns:dc="http://purl.org/dc/elements/1.1/"
   xmlns:cc="http://creativecommons.org/ns#"
   xmlns:rdf="http://www.w3.org/1999/02/22-rdf-syntax-ns#"
   xmlns:svg="http://www.w3.org/2000/svg"
   xmlns="http://www.w3.org/2000/svg"
   xmlns:sodipodi="http://sodipodi.sourceforge.net/DTD/sodipodi-0.dtd"
   xmlns:inkscape="http://www.inkscape.org/namespaces/inkscape"
   width="122.73626mm"
   height="122.87379mm"
   viewBox="0 0 122.73627 122.87379"
   version="1.1"
   id="svg8"
   inkscape:version="0.92.1 r15371">
  <defs
     id="defs2" />
  <sodipodi:namedview
     id="base"
     pagecolor="#ffffff"
     bordercolor="#666666"
     borderopacity="1.0"
     inkscape:pageopacity="0.0"
     inkscape:pageshadow="2"
     inkscape:zoom="0.35"
     inkscape:cx="494.09838"
     inkscape:cy="476.74857"
     inkscape:document-units="mm"
     inkscape:current-layer="layer1"
     showgrid="false"
     inkscape:window-width="1366"
     inkscape:window-height="705"
     inkscape:window-x="-8"
     inkscape:window-y="-8"
     inkscape:window-maximized="1"
     fit-margin-top="0"
     fit-margin-left="0"
     fit-margin-right="0"
     fit-margin-bottom="0" />
  <metadata
     id="metadata5">
    <rdf:RDF>
      <cc:Work
         rdf:about="">
        <dc:format>image/svg+xml</dc:format>
        <dc:type
           rdf:resource="http://purl.org/dc/dcmitype/StillImage" />
        <dc:title></dc:title>
      </cc:Work>
    </rdf:RDF>
  </metadata>
  <g
     inkscape:label="Layer 1"
     inkscape:groupmode="layer"
     id="layer1"
     transform="translate(24.896861,-152.09926)">
    <path
       style="fill:#000000;stroke-width:0.26458335"
       d="M 30.253563,274.80037 C 24.970045,274.2093 18.825309,272.72478 14.313141,270.94929 -6.6895947,262.68493 -21.33967,244.0544 -24.565291,221.5075 c -0.442093,-3.0902 -0.442093,-12.7848 0,-15.875 2.593166,-18.12607 12.346053,-33.55147 27.5667697,-43.60027 10.3899043,-6.85947 23.0024863,-10.36484 35.5864593,-9.89042 8.964126,0.33795 16.45444,2.18131 24.421709,6.01015 12.632595,6.07086 22.635409,16.044 28.780513,28.69512 2.886191,5.9419 4.761876,12.10446 5.717672,18.78542 0.442093,3.0902 0.442093,12.7848 0,15.875 -2.984785,20.86347 -15.627453,38.31943 -34.313644,47.37745 -5.857676,2.83948 -11.285249,4.53935 -17.727083,5.55198 -3.186137,0.50085 -12.084995,0.71344 -15.213542,0.36344 z m 12.115115,-2.63401 c 20.087632,-2.13779 37.480545,-14.08318 46.601463,-32.00573 10.51937,-20.67051 7.877897,-45.47054 -6.777538,-63.6323 C 64.812933,154.99056 34.543183,148.52018 9.8806455,161.07113 -9.9204579,171.14806 -22.398522,191.4424 -22.398522,213.57 c 0,29.71955 22.24143654,54.79578 51.858335,58.46795 3.459773,0.42897 9.518364,0.48924 12.908865,0.12841 z M 12.090464,233.01023 c -3.0557761,-0.32166 -5.3996115,-1.27676 -7.4279497,-3.02684 -1.8284692,-1.57764 -3.513119,-5.59597 -3.513119,-8.37971 v -0.75764 h 3.4147549 3.4147549 l 0.1808639,1.31504 c 0.4956519,3.60381 3.052704,5.58734 6.718631,5.2117 2.130126,-0.21827 3.667646,-1.2781 4.655484,-3.20909 l 0.797803,-1.55951 0.0779,-15.69574 0.0779,-15.69573 h 3.427831 3.427828 v 15.23047 c 0,12.2791 -0.07431,15.58685 -0.383463,17.06957 -1.378212,6.60993 -7.168116,10.30815 -14.869219,9.49748 z m 36.948516,-0.009 c -3.753194,-0.40523 -7.502367,-1.93245 -9.960134,-4.05724 -2.159852,-1.86724 -3.7982,-5.15289 -3.7982,-7.61714 v -1.01031 h 3.571875 c 3.276653,0 3.571875,0.0398 3.571875,0.48114 0,0.26463 0.186479,1.10908 0.414396,1.87657 0.602708,2.02953 2.189879,3.53016 4.482809,4.23837 2.185638,0.67508 5.994342,0.7419 8.018825,0.1407 2.703735,-0.80292 4.268375,-3.16207 3.867978,-5.8321 -0.407942,-2.72037 -2.132692,-3.92773 -8.696653,-6.08782 -5.687822,-1.87178 -8.444397,-3.21808 -10.561926,-5.15841 -1.98392,-1.8179 -3.005871,-3.60227 -3.301609,-5.76475 -0.485764,-3.552 0.545069,-6.46086 3.141428,-8.86463 2.917883,-2.70144 6.43627,-3.89308 11.512627,-3.89919 3.448052,-0.004 5.753579,0.46996 8.305472,1.70795 3.687588,1.78896 6.43038,5.4607 6.800942,9.10435 l 0.168178,1.65365 H 63.00172 59.426577 l -0.306565,-1.55824 c -0.418166,-2.12549 -1.457126,-3.48745 -3.381039,-4.43215 -1.411412,-0.69304 -1.784707,-0.75649 -4.451035,-0.75649 -2.663791,0 -3.040478,0.0639 -4.445262,0.75367 -2.126385,1.04413 -2.952567,2.31546 -2.958605,4.5527 -0.0039,1.45357 0.09358,1.77558 0.803404,2.65331 1.169207,1.44577 3.371538,2.54955 8.1796,4.09952 7.822459,2.52171 11.03032,4.62964 12.804891,8.41426 0.620866,1.32411 0.697222,1.8057 0.697222,4.39738 0,2.64146 -0.06741,3.04763 -0.729519,4.3952 -0.937334,1.90775 -3.164944,4.01108 -5.312384,5.01598 -2.880828,1.3481 -7.4139,1.97204 -11.288305,1.55372 z"
       id="path47"
       inkscape:connector-curvature="0" />
  </g>
</svg>
