<?xml version="1.0" encoding="UTF-8" standalone="no"?>
<!-- Created with Inkscape (http://www.inkscape.org/) -->

<svg
   xmlns:dc="http://purl.org/dc/elements/1.1/"
   xmlns:cc="http://creativecommons.org/ns#"
   xmlns:rdf="http://www.w3.org/1999/02/22-rdf-syntax-ns#"
   xmlns:svg="http://www.w3.org/2000/svg"
   xmlns="http://www.w3.org/2000/svg"
   xmlns:sodipodi="http://sodipodi.sourceforge.net/DTD/sodipodi-0.dtd"
   xmlns:inkscape="http://www.inkscape.org/namespaces/inkscape"
   width="125.67744mm"
   height="125.59859mm"
   viewBox="0 0 125.67745 125.59859"
   version="1.1"
   id="svg8"
   inkscape:version="0.92.1 r15371">
  <defs
     id="defs2" />
  <sodipodi:namedview
     id="base"
     pagecolor="#ffffff"
     bordercolor="#666666"
     borderopacity="1.0"
     inkscape:pageopacity="0.0"
     inkscape:pageshadow="2"
     inkscape:zoom="0.35"
     inkscape:cx="-58.915595"
     inkscape:cy="474.74549"
     inkscape:document-units="mm"
     inkscape:current-layer="layer1"
     showgrid="false"
     inkscape:window-width="1366"
     inkscape:window-height="705"
     inkscape:window-x="-8"
     inkscape:window-y="-8"
     inkscape:window-maximized="1"
     fit-margin-top="0"
     fit-margin-left="0"
     fit-margin-right="0"
     fit-margin-bottom="0" />
  <metadata
     id="metadata5">
    <rdf:RDF>
      <cc:Work
         rdf:about="">
        <dc:format>image/svg+xml</dc:format>
        <dc:type
           rdf:resource="http://purl.org/dc/dcmitype/StillImage" />
        <dc:title></dc:title>
      </cc:Work>
    </rdf:RDF>
  </metadata>
  <g
     inkscape:label="Layer 1"
     inkscape:groupmode="layer"
     id="layer1"
     transform="translate(-121.42142,-148.84448)">
    <path
       style="fill:#000000;stroke-width:0.26458335"
       d="m 179.36535,274.36339 c -8.72514,-0.87468 -15.60404,-2.80627 -23.06472,-6.47656 -12.40777,-6.104 -22.39298,-16.14193 -28.51777,-28.66834 -3.01646,-6.16924 -4.7825,-11.80355 -5.86942,-18.72562 -0.65603,-4.17794 -0.65603,-13.70634 0,-17.88428 1.08692,-6.92207 2.85296,-12.55637 5.86942,-18.72562 6.17012,-12.6191 16.17947,-22.62923 28.80952,-28.81175 9.34724,-4.57555 16.68408,-6.22674 27.66776,-6.22674 10.98368,0 18.32052,1.65119 27.66776,6.22674 12.63005,6.18252 22.6394,16.19265 28.80953,28.81175 3.01645,6.16925 4.78249,11.80355 5.86941,18.72562 0.65603,4.17794 0.65603,13.70634 0,17.88428 -1.08692,6.92207 -2.85296,12.55638 -5.86941,18.72562 -6.1248,12.52641 -16.11001,22.56434 -28.51778,28.66834 -6.24325,3.07137 -12.20822,4.96218 -18.83139,5.96925 -2.76751,0.42081 -11.67224,0.74296 -14.02291,0.50731 z m 10.18646,-2.77048 c 16.31274,-1.50661 31.50391,-9.63255 41.62628,-22.26641 9.49129,-11.84618 14.32338,-27.15308 13.20472,-41.82929 -1.66494,-21.84283 -14.25615,-40.52541 -33.74991,-50.07742 -16.68453,-8.17547 -36.061,-8.17547 -52.74552,0 -12.2723,6.01347 -21.68173,15.42564 -27.75011,27.75818 -10.27911,20.88988 -7.47888,45.82151 7.20492,64.14853 12.46265,15.55478 32.47382,24.08916 52.20962,22.26641 z m -34.13935,-24.18416 c -1.58565,-0.51061 -3.23951,-1.962 -4.00354,-3.51341 -0.53681,-1.09004 -0.61754,-1.64077 -0.61074,-4.16648 0.009,-3.2418 0.27755,-4.14671 1.71996,-5.78952 1.4134,-1.60977 2.64977,-2.09979 5.62568,-2.22966 4.10563,-0.17917 6.26783,0.74189 7.77417,3.31167 0.66371,1.13227 0.75357,1.56988 0.83996,4.09034 0.14901,4.3478 -0.84108,6.4463 -3.74551,7.93858 -1.44304,0.74143 -5.77607,0.94581 -7.59998,0.35848 z m 6.81086,-2.95278 c 1.51372,-1.13015 1.78975,-1.79666 1.88323,-4.5473 0.079,-2.32617 0.0305,-2.64376 -0.52917,-3.46278 -1.14777,-1.67958 -1.84364,-1.99994 -4.53757,-2.08891 -2.78639,-0.092 -3.8535,0.30186 -4.87602,1.79987 -0.5209,0.76312 -0.5951,1.20626 -0.59357,3.54499 0.001,2.15443 0.0967,2.8168 0.49109,3.41503 1.05366,1.59802 2.27767,2.04956 5.26795,1.94334 1.68794,-0.06 2.35029,-0.19825 2.89406,-0.60424 z m 12.7764,-4.8594 v -2.64584 h 21.43125 21.43125 v 2.64584 2.64583 h -21.43125 -21.43125 z m -20.67343,-19.52275 c -2.611,-1.35644 -3.88606,-4.25767 -3.59084,-8.17048 0.16903,-2.24032 0.82216,-3.85729 2.05673,-5.09185 1.51001,-1.51002 2.63316,-1.86328 5.93567,-1.86695 2.51432,-0.003 3.09046,0.0819 4.23333,0.62219 1.58999,0.75166 2.56212,1.73926 3.28589,3.33817 0.43146,0.95315 0.53959,1.74472 0.54218,3.96875 0.004,3.30941 -0.56906,4.87693 -2.33485,6.38838 -1.45753,1.24758 -2.61092,1.54912 -5.92547,1.54912 -2.52937,0 -2.91288,-0.0673 -4.20264,-0.73733 z m 7.97357,-2.50382 c 1.5095,-1.03037 1.89106,-2.08225 1.79956,-4.96094 -0.0908,-2.85674 -0.5496,-3.83093 -2.1652,-4.59758 -1.37811,-0.65396 -5.31457,-0.594 -6.44993,0.0982 -1.6201,0.98778 -1.94898,1.88327 -1.86119,5.06765 0.0845,3.06604 0.25383,3.46047 1.92975,4.49567 0.62806,0.38795 1.32406,0.4905 3.33431,0.49129 2.20082,7.9e-4 2.65719,-0.0786 3.4127,-0.59433 z m 12.69986,-4.69635 v -2.64584 h 21.43125 21.43125 v 2.64584 2.64583 H 196.43097 174.99972 Z M 154.7591,193.46571 c -1.56105,-0.72849 -3.09863,-2.33795 -3.60609,-3.77467 -0.22225,-0.62923 -0.35878,-2.10237 -0.35263,-3.80489 0.0116,-3.20457 0.53392,-4.66906 2.18122,-6.11541 1.61719,-1.41991 2.51192,-1.6757 5.87854,-1.68059 3.55556,-0.005 4.52133,0.35735 6.28265,2.35832 1.39731,1.58742 1.73952,2.9198 1.61486,6.2874 -0.0888,2.39877 -0.18937,2.88014 -0.83017,3.97359 -1.46063,2.49237 -3.29851,3.35126 -7.19963,3.36457 -2.22952,0.008 -2.85399,-0.0881 -3.96875,-0.60832 z m 7.1438,-2.5525 c 0.71258,-0.34496 1.30306,-0.90267 1.69608,-1.60195 0.53258,-0.94759 0.59228,-1.36215 0.51173,-3.55308 -0.10184,-2.76976 -0.45864,-3.53355 -2.10323,-4.50224 -1.28808,-0.75871 -5.26836,-0.7564 -6.53905,0.004 -1.5444,0.92395 -1.89996,1.82538 -1.89996,4.81695 0,2.30591 0.0763,2.75588 0.60059,3.54065 0.90385,1.35297 2.07661,1.82417 4.5414,1.82465 1.55919,2.7e-4 2.38052,-0.13573 3.19244,-0.52878 z m 13.09682,-4.76248 v -2.64583 h 21.43125 21.43125 v 2.64583 2.64583 h -21.43125 -21.43125 z"
       id="path34"
       inkscape:connector-curvature="0" />
  </g>
</svg>
