<?xml version="1.0" encoding="UTF-8" standalone="no"?>
<!-- Created with Inkscape (http://www.inkscape.org/) -->

<svg
   xmlns:dc="http://purl.org/dc/elements/1.1/"
   xmlns:cc="http://creativecommons.org/ns#"
   xmlns:rdf="http://www.w3.org/1999/02/22-rdf-syntax-ns#"
   xmlns:svg="http://www.w3.org/2000/svg"
   xmlns="http://www.w3.org/2000/svg"
   xmlns:sodipodi="http://sodipodi.sourceforge.net/DTD/sodipodi-0.dtd"
   xmlns:inkscape="http://www.inkscape.org/namespaces/inkscape"
   width="107.77255mm"
   height="122.58489mm"
   viewBox="0 0 107.77255 122.58489"
   version="1.1"
   id="svg8"
   inkscape:version="0.92.1 r15371">
  <defs
     id="defs2" />
  <sodipodi:namedview
     id="base"
     pagecolor="#ffffff"
     bordercolor="#666666"
     borderopacity="1.0"
     inkscape:pageopacity="0.0"
     inkscape:pageshadow="2"
     inkscape:zoom="0.35"
     inkscape:cx="270.46878"
     inkscape:cy="271.1671"
     inkscape:document-units="mm"
     inkscape:current-layer="layer1"
     showgrid="false"
     fit-margin-top="0"
     fit-margin-left="0"
     fit-margin-right="0"
     fit-margin-bottom="0"
     inkscape:window-width="1366"
     inkscape:window-height="705"
     inkscape:window-x="-8"
     inkscape:window-y="-8"
     inkscape:window-maximized="1" />
  <metadata
     id="metadata5">
    <rdf:RDF>
      <cc:Work
         rdf:about="">
        <dc:format>image/svg+xml</dc:format>
        <dc:type
           rdf:resource="http://purl.org/dc/dcmitype/StillImage" />
        <dc:title></dc:title>
      </cc:Work>
    </rdf:RDF>
  </metadata>
  <g
     inkscape:label="Layer 1"
     inkscape:groupmode="layer"
     id="layer1"
     transform="translate(-34.271801,-97.994734)">
    <g
       id="g21"
       transform="translate(-2.6647286,20.991511)">
      <path
         style="fill:#fefefe;stroke-width:0.26458335"
         d="m 82.474401,199.18631 c -8.934709,-1.34417 -17.686676,-5.07749 -25.003125,-10.66555 -2.378671,-1.81675 -6.834186,-6.22758 -8.857816,-8.76898 -6.181011,-7.76248 -10.159497,-17.2034 -11.369846,-26.98056 -0.405328,-3.27423 -0.337306,-11.82146 0.119664,-15.03622 1.332025,-9.37072 4.590776,-17.20946 10.39867,-25.01342 3.769511,-5.06501 10.171626,-10.77185 15.324255,-13.660013 1.797764,-1.007689 3.312578,-2.39841 11.979865,-10.998467 11.491272,-11.402138 10.97452,-11.039123 15.742709,-11.059151 2.351413,-0.0099 2.837206,0.07341 4.365625,0.748495 1.570704,0.693758 2.580216,1.609854 11.645088,10.567494 8.74136,8.637956 10.17738,9.949116 12.03854,10.991863 6.10733,3.421719 12.44257,9.422689 16.76633,15.881649 4.60887,6.88486 7.41917,14.15642 8.64063,22.35729 0.58969,3.95919 0.59254,11.93237 0.006,16.11152 -2.30203,16.39519 -11.89516,30.57316 -26.40586,39.026 -4.87642,2.84063 -11.26181,5.17208 -17.13423,6.2561 -3.440741,0.63514 -14.654812,0.78377 -18.256246,0.24195 z"
         id="path37"
         inkscape:connector-curvature="0" />
      <path
         style="fill:#fcfcfc;stroke-width:0.26458335"
         d="m 84.194193,199.31248 c -22.635615,-3.04451 -40.433246,-18.92504 -45.792264,-40.85965 -1.351604,-5.53216 -1.842332,-13.65894 -1.158722,-19.18924 2.068262,-16.73192 11.772871,-31.71638 25.895238,-39.983709 2.01024,-1.17681 3.376673,-2.431374 11.927623,-10.95113 11.417303,-11.375653 11.031387,-11.103492 15.742709,-11.102233 4.641815,0.0012 4.298503,-0.241401 15.742713,11.126391 8.46415,8.407642 9.93514,9.756093 11.90625,10.914441 14.01498,8.2361 23.67042,22.93347 25.82559,39.31132 0.5966,4.53371 0.39387,12.92213 -0.40996,16.96374 -2.12162,10.66727 -6.73683,19.75744 -13.86165,27.30209 -7.94635,8.41459 -18.17364,13.90553 -29.99214,16.10249 -2.762873,0.5136 -12.97135,0.74937 -15.825387,0.36549 z m 10.847097,-1.43447 c 5.01001,-0.31084 12.31959,-2.23641 17.38405,-4.57948 10.88957,-5.03806 20.10882,-14.05324 25.33073,-24.77 4.02142,-8.25302 5.90332,-17.6102 5.27236,-26.21529 -1.26572,-17.26198 -10.8733,-32.78128 -25.801,-41.67683 -2.06591,-1.231096 -3.49403,-2.539068 -12.13115,-11.110585 -9.126051,-9.056729 -9.895264,-9.754215 -11.348702,-10.290465 -2.37666,-0.876876 -4.453448,-0.783895 -6.642968,0.297416 -0.64693,0.319492 -4.863814,4.292411 -10.847917,10.220316 -8.88056,8.797162 -10.022981,9.83661 -12.303125,11.194188 -3.778721,2.24982 -6.692874,4.52867 -9.924381,7.7608 -8.307563,8.30918 -13.390994,18.51131 -15.096303,30.29734 -0.55021,3.8027 -0.40896,11.55047 0.27978,15.34636 1.948028,10.73629 6.878971,20.20222 14.554445,27.94017 6.351485,6.40317 12.487775,10.27013 20.727454,13.062 5.227526,1.77125 13.132898,3.04178 17.107964,2.74956 0.582083,-0.0428 2.129528,-0.14426 3.438763,-0.2255 z"
         id="path35"
         inkscape:connector-curvature="0" />
      <path
         style="fill:#f9f9f9;stroke-width:0.26458335"
         d="m 84.326485,199.19408 c -17.735212,-2.1965 -33.267375,-13.07686 -41.419836,-29.01481 -7.750281,-15.1517 -7.887652,-32.92343 -0.373071,-48.26432 4.510537,-9.20818 11.968292,-17.3075 20.667353,-22.445273 1.914859,-1.13094 3.506947,-2.595193 11.997429,-11.0341 11.387817,-11.318644 11.178659,-11.167375 15.478125,-11.194171 2.312995,-0.01441 2.661314,0.05424 4.365625,0.860544 1.697755,0.803199 2.65679,1.675514 11.50938,10.468653 8.35338,8.297295 9.95539,9.768681 11.86513,10.897748 11.89,7.029529 20.97544,19.106139 24.46996,32.526139 1.06105,4.07477 1.51401,7.28458 1.68018,11.90625 0.52258,14.53426 -4.76138,28.36446 -14.9123,39.03133 -11.61182,12.20205 -28.67663,18.32427 -45.327975,16.26201 z m 11.377083,-1.2051 c 18.316342,-1.69652 34.323862,-12.81503 42.336452,-29.40606 5.52243,-11.43485 6.71559,-24.25598 3.41484,-36.69432 -3.46697,-13.06473 -12.155,-24.48965 -23.90142,-31.43082 -2.16311,-1.278219 -3.35303,-2.367726 -11.92791,-10.921372 C 94.680279,78.618251 94.587223,78.549244 90.808777,78.548867 c -3.847862,-3.7e-4 -3.512119,-0.248239 -14.552084,10.742839 -8.893683,8.854302 -10.014437,9.879098 -12.246571,11.198044 -17.034289,10.06541 -27.084359,29.37667 -25.509377,49.0164 0.17288,2.15578 0.605898,5.31301 0.962263,7.01607 5.462326,26.10438 29.639717,43.93063 56.24056,41.46676 z"
         id="path33"
         inkscape:connector-curvature="0" />
      <path
         style="fill:#f5f5f5;stroke-width:0.26458335"
         d="M 87.369193,199.43076 C 70.108475,198.04533 55.167088,189.28107 45.86773,175.08699 34.057801,157.06091 34.178363,133.77687 46.174539,115.83301 c 4.483354,-6.7062 10.674455,-12.59388 17.276894,-16.430156 1.690095,-0.982011 3.558734,-2.703346 11.595008,-10.680981 5.269116,-5.230668 10.081157,-9.803879 10.693422,-10.16269 2.832467,-1.659937 6.190427,-1.793394 9.219941,-0.366433 1.466614,0.690805 2.844966,1.953062 11.327096,10.373048 8.74686,8.682768 9.88178,9.716739 12.03854,10.967651 8.26266,4.792311 15.71258,12.714091 20.25349,21.536281 7.86235,15.27515 7.98825,33.09038 0.3427,48.4956 -7.84451,15.80612 -22.96027,26.81066 -40.307645,29.34468 -2.895499,0.42296 -8.962615,0.70393 -11.244792,0.52075 z m 9.33699,-1.43739 c 9.754737,-1.06021 19.659867,-5.20017 27.147677,-11.34671 10.91391,-8.95892 17.6288,-21.25369 19.22766,-35.20529 0.44367,-3.87149 0.18194,-11.45372 -0.52705,-15.2681 -1.15468,-6.21224 -3.40428,-12.22024 -6.51486,-17.39924 -4.44881,-7.40709 -11.33233,-14.26614 -18.50792,-18.44213 -2.14916,-1.250748 -3.32249,-2.319031 -12.03854,-10.96072 -6.207306,-6.15435 -10.082631,-9.797753 -10.847915,-10.198713 -1.019966,-0.534396 -1.569868,-0.62381 -3.836458,-0.62381 -4.120235,0 -3.77679,-0.2501 -14.816667,10.789605 -8.560311,8.560177 -9.772315,9.673098 -11.966898,10.988598 -11.956373,7.16699 -20.864299,19.04883 -24.138241,32.1968 -1.417483,5.69253 -1.962563,13.14185 -1.363031,18.62783 1.123777,10.28305 5.005319,19.71599 11.333191,27.54196 3.384833,4.18618 8.861243,9.04948 13.318667,11.82759 6.049164,3.77016 14.293991,6.65359 21.282978,7.44322 3.020405,0.34125 9.239491,0.35603 12.247407,0.0291 z"
         id="path31"
         inkscape:connector-curvature="0" />
      <path
         style="fill:#f1f1f1;stroke-width:0.26458335"
         d="M 84.458776,199.03176 C 57.461343,195.64625 37.23065,172.82822 37.23065,145.76355 c 0,-18.96887 9.771758,-36.30969 25.956986,-46.06291 2.233702,-1.346029 3.464854,-2.472814 12.143015,-11.113632 11.322622,-11.273898 11.077843,-11.098452 15.478126,-11.094019 4.337582,0.0044 4.137287,-0.139503 15.478123,11.118157 8.63918,8.575813 9.91935,9.744647 12.14302,11.086927 14.04403,8.477437 23.44278,22.855097 25.58943,39.145187 0.5208,3.95221 0.38007,12.03808 -0.27223,15.64082 -1.24838,6.895 -3.4521,12.91873 -6.74082,18.42561 -8.59935,14.39938 -22.93725,23.89928 -39.265763,26.01641 -3.365799,0.43641 -10.210056,0.49085 -13.281761,0.10566 z m 10.583334,-0.77364 c 13.05485,-1.12506 24.53052,-6.52809 33.47856,-15.76253 4.42709,-4.56879 7.14911,-8.44331 9.77427,-13.91267 8.07285,-16.81932 6.67615,-36.67572 -3.67373,-52.2282 -4.43894,-6.67027 -10.14581,-12.07367 -17.06786,-16.16027 C 115.38779,98.91597 114.2096,97.836946 105.62544,89.270476 94.775598,78.44299 94.644034,78.344702 90.953689,78.30953 86.736659,78.26934 85.955744,78.852505 74.563442,90.549359 67.321645,97.98475 66.60033,98.647353 64.1124,100.14972 c -7.24679,4.37606 -12.621732,9.4776 -17.190948,16.31649 -7.729879,11.56956 -10.515123,25.9774 -7.707439,39.86995 2.766392,13.68824 10.957971,25.7629 22.75518,33.54191 5.236167,3.45269 11.910094,6.18869 18.20536,7.46333 5.396926,1.09276 9.726909,1.35974 14.867557,0.91672 z"
         id="path29"
         inkscape:connector-curvature="0" />
      <path
         style="fill:#ededed;stroke-width:0.26458335"
         d="m 85.384818,199.03082 c -7.44764,-0.76108 -15.691821,-3.50641 -22.034066,-7.33739 -13.50748,-8.15909 -22.605143,-21.51412 -25.347605,-37.20935 -0.786203,-4.49948 -0.862567,-12.246 -0.16472,-16.70959 1.134654,-7.25751 3.73238,-14.26327 7.602653,-20.50343 4.239785,-6.83594 10.863637,-13.33811 17.919003,-17.589822 1.82942,-1.102447 3.778608,-2.884539 11.98761,-10.959963 11.369469,-11.184463 11.445592,-11.240173 15.328792,-11.218261 1.700969,0.0096 2.635774,0.162761 3.836458,0.628582 1.470203,0.570385 2.310845,1.33434 11.377087,10.33921 6.35942,6.316375 10.25311,9.984441 11.1125,10.468556 14.0642,7.922798 23.86692,21.863558 26.59222,37.817628 3.64181,21.31942 -6.19126,43.09786 -24.60036,54.48526 -10.08011,6.23531 -21.932242,8.98188 -33.609572,7.78857 z m 10.847917,-0.76358 c 18.154635,-1.88366 34.104415,-13.06368 42.079465,-29.49566 8.03023,-16.54568 6.82683,-36.46384 -3.12512,-51.72605 -4.47935,-6.86947 -10.34174,-12.52376 -17.48366,-16.86303 -2.6313,-1.598718 -3.45595,-2.346146 -12.47485,-11.306677 C 94.284259,78.00234 94.669881,78.282979 90.676485,78.285485 c -3.923067,0.0025 -3.910185,-0.007 -15.069876,11.082772 -8.549116,8.495564 -9.940986,9.770396 -12.020487,11.009713 -3.138995,1.87073 -5.865357,3.95262 -8.825783,6.73948 -11.2652,10.60474 -17.223136,25.045 -16.65022,40.35517 0.377794,10.09588 3.137559,18.927 8.456431,27.06017 2.712043,4.14703 7.12075,9.02238 11.169309,12.35154 10.420832,8.56911 24.758058,12.8084 38.496876,11.38291 z"
         id="path27"
         inkscape:connector-curvature="0" />
      <path
         style="fill:#e9e9e9;stroke-width:0.26458335"
         d="m 83.003568,198.63265 c -22.302674,-3.3877 -39.914147,-20.14424 -44.593542,-42.42878 -0.945785,-4.50408 -1.206533,-13.11323 -0.536906,-17.72709 0.843622,-5.81271 2.240798,-10.4654 4.677863,-15.57758 1.984167,-4.16214 2.98238,-5.82047 5.673607,-9.42554 3.946039,-5.28597 9.756212,-10.52008 15.239205,-13.728274 C 65.39224,98.617018 66.902039,97.231814 75.330651,88.857833 85.693322,78.562328 86.27086,78.098591 89.3472,77.603161 c 1.841725,-0.296601 3.7422,0.01748 5.79647,0.957957 1.222555,0.559706 3.053282,2.250698 11.13186,10.282206 7.85115,7.805413 10.01759,9.81315 11.52485,10.680622 11.34132,6.527264 20.4318,18.091564 24.20469,30.791564 5.08423,17.11417 1.43396,35.2298 -9.93711,49.31615 -8.20757,10.16744 -20.49149,17.09131 -33.752515,19.02472 -3.566131,0.51993 -11.816921,0.50714 -15.311877,-0.0237 z m 18.256252,-1.00994 c 7.95935,-1.68077 15.04747,-4.86417 21.40343,-9.61263 2.49515,-1.8641 6.99122,-6.18216 9.04294,-8.6849 5.37375,-6.55504 9.15937,-14.53431 10.96948,-23.12131 0.58481,-2.77429 0.71953,-4.22407 0.8359,-8.99584 0.15727,-6.4483 -0.18356,-9.82035 -1.51421,-14.98112 -3.4073,-13.21482 -12.36779,-25.15481 -23.9365,-31.89574 -2.14682,-1.25092 -3.34503,-2.341804 -12.17083,-11.080665 -7.325392,-7.253226 -10.109616,-9.84447 -11.060978,-10.294322 -1.575806,-0.745121 -3.551042,-1.011678 -5.543707,-0.748121 -3.035122,0.401436 -3.560429,0.825539 -13.69011,11.052618 -8.755801,8.839988 -9.567263,9.586324 -11.966898,11.00647 -3.813644,2.25698 -6.864734,4.6377 -10.133259,7.90685 -7.868459,7.86993 -12.720514,17.17535 -14.836081,28.45308 -0.570873,3.04322 -0.79527,11.91672 -0.386152,15.26985 1.003843,8.22748 3.751836,15.80976 8.196752,22.61654 2.427078,3.71673 4.490411,6.21028 7.7314,9.34342 7.044486,6.81007 15.418887,11.34283 24.874157,13.46348 4.703794,1.05497 6.270673,1.18866 12.791956,1.09145 5.347034,-0.0797 6.486713,-0.17546 9.39271,-0.78911 z"
         id="path25"
         inkscape:connector-curvature="0" />
      <path
         style="fill:#e6e6e6;stroke-width:0.26458335"
         d="m 89.419714,198.87084 c 0.836745,-0.0525 2.205964,-0.0525 3.042709,0 0.836744,0.0525 0.152135,0.0955 -1.521355,0.0955 -1.673489,0 -2.358099,-0.043 -1.521354,-0.0955 z m -4.233333,-0.25144 c 0.254661,-0.0666 0.67138,-0.0666 0.926041,0 0.254662,0.0665 0.0463,0.121 -0.46302,0.121 -0.509323,0 -0.717683,-0.0545 -0.463021,-0.121 z m 10.186458,-0.004 c 0.327422,-0.0631 0.863203,-0.0631 1.190625,0 0.327422,0.0631 0.05953,0.11466 -0.595312,0.11466 -0.654844,0 -0.922735,-0.0516 -0.595313,-0.11466 z m -12.440452,-0.25141 c 0.179131,-0.0725 0.536319,-0.0769 0.79375,-0.01 0.257432,0.0671 0.110869,0.12639 -0.325694,0.13178 -0.436562,0.005 -0.647187,-0.0495 -0.468056,-0.12197 z m 15.086286,-0.002 c 0.181901,-0.0734 0.479557,-0.0734 0.661458,0 0.181901,0.0734 0.03307,0.13346 -0.330729,0.13346 -0.363802,0 -0.51263,-0.0601 -0.330729,-0.13346 z m -16.668751,-0.26458 c 0.181901,-0.0734 0.479558,-0.0734 0.661459,0 0.181901,0.0734 0.03307,0.13345 -0.33073,0.13345 -0.363802,0 -0.51263,-0.06 -0.330729,-0.13345 z m 18.256251,0 c 0.181901,-0.0734 0.479557,-0.0734 0.661457,0 0.1819,0.0734 0.0331,0.13345 -0.330728,0.13345 -0.363802,0 -0.51263,-0.06 -0.330729,-0.13345 z m -19.562631,-0.27009 c 0.190995,-0.0764 0.419198,-0.067 0.507119,0.0209 0.08792,0.0879 -0.06835,0.15045 -0.347266,0.13897 -0.308226,-0.0127 -0.370919,-0.0754 -0.159853,-0.15986 z m 21.166668,0 c 0.19099,-0.0764 0.4192,-0.067 0.50712,0.0209 0.0879,0.0879 -0.0684,0.15045 -0.34727,0.13897 -0.30822,-0.0127 -0.37092,-0.0754 -0.15985,-0.15986 z m 1.32292,-0.26459 c 0.19099,-0.0764 0.4192,-0.067 0.50711,0.0209 0.0879,0.0879 -0.0683,0.15045 -0.34726,0.13896 -0.30823,-0.0127 -0.37092,-0.0754 -0.15985,-0.15985 z m -24.870838,-0.26458 c 0.190995,-0.0764 0.419198,-0.067 0.507119,0.0209 0.08792,0.0879 -0.06835,0.15046 -0.347266,0.13897 -0.308226,-0.0127 -0.370919,-0.0754 -0.159853,-0.15985 z m 25.929168,0 c 0.19099,-0.0764 0.4192,-0.067 0.50712,0.0209 0.0879,0.0879 -0.0683,0.15046 -0.34727,0.13897 -0.30822,-0.0127 -0.37092,-0.0754 -0.15985,-0.15985 z m 8.78086,-2.99435 c 0.21828,-0.14107 0.51594,-0.25648 0.66146,-0.25648 0.14552,0 0.086,0.11541 -0.13229,0.25648 -0.21829,0.14106 -0.51594,0.25648 -0.66146,0.25648 -0.14552,0 -0.086,-0.11542 0.13229,-0.25648 z m -44.051254,-0.26156 c -0.09269,-0.14998 0.01352,-0.19433 0.248968,-0.10398 0.458369,0.17589 0.542234,0.36554 0.161649,0.36554 -0.136932,0 -0.321712,-0.1177 -0.410617,-0.26156 z M 65.3932,192.59249 c -0.282474,-0.21365 -0.394528,-0.38846 -0.249007,-0.38846 0.145521,0 0.495699,0.17481 0.778174,0.38846 0.282474,0.21365 0.394528,0.38846 0.249007,0.38846 -0.145521,0 -0.4957,-0.17481 -0.778174,-0.38846 z m 50.44075,0.0274 c 0.0606,-0.053 0.4079,-0.23821 0.7717,-0.41147 0.6237,-0.29703 0.63214,-0.29152 0.14787,0.0965 -0.42148,0.33767 -1.28266,0.63269 -0.91957,0.31501 z m 2.07714,-1.17203 c 0.883,-0.7226 2.39783,-1.57932 1.86956,-1.05734 -0.21828,0.21568 -0.87312,0.66039 -1.45521,0.98824 -0.89204,0.50244 -0.95714,0.51329 -0.41435,0.0691 z m -55.478877,-0.5807 c -0.886483,-0.54049 -1.221695,-1.01413 -0.396875,-0.56076 0.614408,0.33772 1.556071,1.06825 1.389063,1.07763 -0.07276,0.004 -0.519245,-0.22851 -0.992188,-0.51687 z m 57.877607,-0.92515 c 0,-0.0609 0.56555,-0.4968 1.25677,-0.96875 0.69122,-0.47195 1.0985,-0.66245 0.90506,-0.42334 -0.35207,0.43519 -2.16183,1.60057 -2.16183,1.39209 z m -60.77327,-1.08638 -0.742357,-0.68572 0.859895,0.57144 c 0.787683,0.52346 1.0443,0.8 0.742358,0.8 -0.06465,0 -0.451599,-0.30858 -0.859896,-0.68572 z m -1.561246,-1.20384 c -0.502237,-0.56464 -0.501914,-0.56535 0.09128,-0.20094 0.327422,0.20113 0.595313,0.45613 0.595313,0.56664 0,0.31902 -0.147355,0.24053 -0.686597,-0.3657 z m 64.980346,0.43993 c 0,-0.22912 1.69246,-1.70899 1.96435,-1.71762 0.13451,-0.004 -0.0441,0.30084 -0.39687,0.678 -0.65179,0.69682 -1.56748,1.30415 -1.56748,1.03962 z m -66.303262,-1.49929 c -0.501327,-0.56462 -0.500838,-0.56599 0.09128,-0.25527 0.327422,0.17181 0.595312,0.42726 0.595312,0.56766 0,0.37588 -0.126651,0.31826 -0.686596,-0.31239 z m -3.553889,-3.12935 c -1.33394,-1.33394 -2.349726,-2.50097 -2.2573,-2.59339 0.09242,-0.0924 1.259453,0.92336 2.593392,2.2573 1.333942,1.33394 2.349728,2.50097 2.257301,2.59339 -0.09242,0.0924 -1.259451,-0.92336 -2.593393,-2.2573 z m 72.767571,2.19238 c 0,-0.32941 4.72004,-4.97602 4.88604,-4.81002 0.0771,0.0771 -0.51784,0.86715 -1.32198,1.75575 -1.54137,1.70328 -3.56406,3.43664 -3.56406,3.05427 z m -76.043381,-5.7714 c -0.238372,-0.36381 -0.32529,-0.66146 -0.193151,-0.66146 0.132139,0 0.435285,0.29765 0.673657,0.66146 0.238373,0.3638 0.325291,0.66145 0.193151,0.66145 -0.132139,0 -0.435284,-0.29765 -0.673657,-0.66145 z m 81.614541,0 c 8e-4,-0.35857 1.57527,-2.06989 1.74666,-1.8985 0.075,0.075 -0.28742,0.5924 -0.80542,1.14974 -0.51801,0.55734 -0.94156,0.89428 -0.94124,0.74876 z M 48.694601,178.3627 c -0.783562,-0.87264 -2.809358,-3.83446 -3.664585,-5.35781 -1.045321,-1.86195 -0.468378,-1.19451 1.257904,1.45521 0.805853,1.23692 1.846372,2.75497 2.312265,3.37344 0.911967,1.21061 0.962969,1.49646 0.09442,0.52916 z m 85.071179,-1.45521 c 0.33164,-0.47294 0.6586,-0.85989 0.72657,-0.85989 0.22868,0 -0.39091,0.96603 -0.86243,1.34467 -0.33144,0.26615 -0.29197,0.12533 0.13586,-0.48478 z m 1.57951,-2.34932 c 0.14937,-0.27222 0.46467,-0.73307 0.70066,-1.02411 0.39828,-0.4912 0.3998,-0.46866 0.0213,0.31395 -0.22429,0.46371 -0.53959,0.92457 -0.70066,1.02411 -0.20972,0.12961 -0.21576,0.0405 -0.0213,-0.31395 z m -91.625553,-3.7891 c -0.222019,-0.42934 -0.40367,-0.87255 -0.40367,-0.98491 0,-0.27055 0.660108,0.71345 0.873774,1.3025 0.26715,0.7365 -0.02819,0.53697 -0.470104,-0.31759 z m 93.540243,0.64832 c 0,-0.14552 0.17481,-0.4957 0.38846,-0.77817 0.21366,-0.28248 0.38846,-0.39453 0.38846,-0.24901 0,0.14552 -0.1748,0.4957 -0.38846,0.77817 -0.21365,0.28248 -0.38846,0.39453 -0.38846,0.24901 z m -94.749791,-3.06537 c -0.16243,-0.3035 -0.245491,-0.60166 -0.184579,-0.66258 0.06091,-0.0609 0.2466,0.18741 0.412639,0.55183 0.364615,0.80024 0.187085,0.88645 -0.22806,0.11075 z m -2.877401,-7.8046 c 0.0127,-0.30822 0.07539,-0.37091 0.159853,-0.15985 0.07643,0.191 0.06703,0.4192 -0.02089,0.50712 -0.08792,0.0879 -0.150453,-0.0684 -0.138964,-0.34727 z m 102.129172,0 c 0.0127,-0.30822 0.0754,-0.37091 0.15985,-0.15985 0.0764,0.191 0.067,0.4192 -0.0209,0.50712 -0.0879,0.0879 -0.15045,-0.0684 -0.13896,-0.34727 z m 0.52917,-1.85208 c 0.0127,-0.30823 0.0754,-0.37092 0.15985,-0.15985 0.0764,0.19099 0.067,0.4192 -0.0209,0.50712 -0.0879,0.0879 -0.15045,-0.0684 -0.13896,-0.34727 z m 0.26458,-1.05833 c 0.0127,-0.30823 0.0754,-0.37092 0.15985,-0.15986 0.0764,0.191 0.067,0.4192 -0.0209,0.50712 -0.0879,0.0879 -0.15045,-0.0683 -0.13896,-0.34726 z M 38.839038,157.37244 c 0.0127,-0.30822 0.07539,-0.37091 0.159853,-0.15985 0.07643,0.191 0.06703,0.4192 -0.02089,0.50712 -0.08792,0.0879 -0.150453,-0.0683 -0.138964,-0.34727 z m -0.264583,-1.05833 c 0.0127,-0.30823 0.07539,-0.37092 0.159853,-0.15985 0.07643,0.19099 0.06703,0.4192 -0.02089,0.50712 -0.08792,0.0879 -0.150453,-0.0684 -0.138965,-0.34727 z m 104.245835,0 c 0.0127,-0.30823 0.0754,-0.37092 0.15985,-0.15985 0.0764,0.19099 0.067,0.4192 -0.0209,0.50712 -0.0879,0.0879 -0.15046,-0.0684 -0.13897,-0.34727 z M 38.33076,154.88095 c 0,-0.3638 0.06005,-0.51263 0.133452,-0.33073 0.0734,0.1819 0.0734,0.47956 0,0.66146 -0.0734,0.1819 -0.133452,0.0331 -0.133452,-0.33073 z m 104.775,0 c 0,-0.3638 0.0601,-0.51263 0.13345,-0.33073 0.0734,0.1819 0.0734,0.47956 0,0.66146 -0.0734,0.1819 -0.13345,0.0331 -0.13345,-0.33073 z M 38.075981,153.16116 c 0.0054,-0.43656 0.06469,-0.58313 0.131773,-0.3257 0.06708,0.25744 0.06267,0.61462 -0.0098,0.79375 -0.07248,0.17914 -0.127363,-0.0315 -0.12197,-0.46805 z m 105.294359,0.13229 c 0,-0.3638 0.0601,-0.51263 0.13346,-0.33073 0.0734,0.1819 0.0734,0.47956 0,0.66146 -0.0734,0.1819 -0.13346,0.0331 -0.13346,-0.33073 z M 37.821201,150.9122 c 0,-0.50932 0.05445,-0.71768 0.121,-0.46302 0.06655,0.25466 0.06655,0.67138 0,0.92604 -0.06655,0.25466 -0.121,0.0463 -0.121,-0.46302 z m 105.833339,0 c 0,-0.50932 0.0545,-0.71768 0.121,-0.46302 0.0666,0.25466 0.0666,0.67138 0,0.92604 -0.0666,0.25466 -0.121,0.0463 -0.121,-0.46302 z m 0.3042,-5.15937 c -5.3e-4,-1.74625 0.0419,-2.49506 0.0942,-1.66402 0.0523,0.83104 0.0528,2.25979 0.001,3.175 -0.0518,0.91521 -0.0946,0.23527 -0.0952,-1.51098 z m -106.364534,0 c 6.08e-4,-1.60073 0.04418,-2.22147 0.09684,-1.37941 0.05266,0.84206 0.05218,2.15175 -0.0011,2.91042 -0.05326,0.75867 -0.09635,0.0697 -0.09575,-1.53101 z m 0.232334,-5.29167 c -0.0029,-0.58208 0.04884,-0.85136 0.115067,-0.5984 0.06622,0.25297 0.06863,0.72922 0.0053,1.05833 -0.06329,0.32912 -0.117469,0.12215 -0.120406,-0.45993 z m 105.828,-0.13229 c 0,-0.50933 0.0545,-0.71769 0.121,-0.46302 0.0666,0.25466 0.0666,0.67138 0,0.92604 -0.0666,0.25466 -0.121,0.0463 -0.121,-0.46302 z M 38.075981,138.34449 c 0.0054,-0.43656 0.06469,-0.58312 0.131773,-0.32569 0.06708,0.25743 0.06267,0.61462 -0.0098,0.79375 -0.07248,0.17913 -0.127363,-0.0315 -0.12197,-0.46806 z m 105.304169,-0.26458 c 0.005,-0.43656 0.0647,-0.58313 0.13177,-0.3257 0.0671,0.25744 0.0627,0.61462 -0.01,0.79375 -0.0725,0.17914 -0.12737,-0.0315 -0.12197,-0.46805 z M 38.309872,136.47036 c 0.01269,-0.30823 0.07539,-0.37092 0.159852,-0.15985 0.07643,0.19099 0.06703,0.4192 -0.02089,0.50712 -0.08792,0.0879 -0.150453,-0.0684 -0.138964,-0.34727 z m 104.795888,-0.11024 c 0,-0.36381 0.0601,-0.51263 0.13345,-0.33073 0.0734,0.1819 0.0734,0.47955 0,0.66146 -0.0734,0.1819 -0.13345,0.0331 -0.13345,-0.33073 z M 38.574455,135.14744 c 0.0127,-0.30822 0.07539,-0.37092 0.159853,-0.15985 0.07643,0.191 0.06703,0.4192 -0.02089,0.50712 -0.08792,0.0879 -0.150453,-0.0684 -0.138965,-0.34727 z m 104.245835,-0.26458 c 0.0127,-0.30823 0.0754,-0.37092 0.15985,-0.15985 0.0764,0.19099 0.067,0.4192 -0.0209,0.50712 -0.0879,0.0879 -0.15046,-0.0684 -0.13897,-0.34727 z M 38.839038,133.82453 c 0.0127,-0.30823 0.07539,-0.37092 0.159853,-0.15986 0.07643,0.191 0.06703,0.4192 -0.02089,0.50712 -0.08792,0.0879 -0.150453,-0.0683 -0.138964,-0.34726 z m 103.716672,0 c 0.0127,-0.30823 0.0754,-0.37092 0.15985,-0.15986 0.0764,0.191 0.067,0.4192 -0.0209,0.50712 -0.0879,0.0879 -0.15045,-0.0683 -0.13896,-0.34726 z M 39.103622,132.76619 c 0.01269,-0.30822 0.07539,-0.37092 0.159852,-0.15985 0.07643,0.191 0.06703,0.4192 -0.02089,0.50712 -0.08792,0.0879 -0.150453,-0.0684 -0.138964,-0.34727 z m 0.264583,-1.05833 c 0.01269,-0.30823 0.07539,-0.37092 0.159853,-0.15985 0.07643,0.19099 0.06703,0.4192 -0.02089,0.50712 -0.08792,0.0879 -0.150453,-0.0684 -0.138965,-0.34727 z m 102.132335,-1.7218 c -0.17892,-0.59719 -0.27661,-1.1345 -0.21708,-1.19403 0.0595,-0.0595 0.25463,0.38037 0.43356,0.97756 0.17892,0.59718 0.2766,1.1345 0.21707,1.19403 -0.0595,0.0595 -0.25463,-0.38037 -0.43355,-0.97756 z M 39.899132,129.87782 c 0.02755,-0.50117 0.468513,-1.3451 0.483871,-0.92604 0.008,0.21828 -0.100872,0.57547 -0.241936,0.79375 -0.141064,0.21828 -0.249935,0.27782 -0.241935,0.13229 z M 136.6855,118.96376 c -1.43905,-2.37649 -1.42665,-2.35215 -0.97817,-1.91823 0.47297,0.45763 1.91817,2.91042 1.71483,2.91042 -0.0747,0 -0.40621,-0.44648 -0.73666,-0.99219 z m -92.308586,0.67564 c -0.0043,-0.31642 1.844758,-3.35341 2.160557,-3.54859 0.334889,-0.20697 0.352313,-0.23934 -1.15477,2.14535 -0.5518,0.87312 -1.004404,1.50458 -1.005787,1.40324 z m 2.610468,-4.34787 c 0.156488,-0.27223 0.655616,-0.91167 1.109173,-1.421 l 0.824647,-0.92604 -0.878675,1.27854 c -0.879674,1.27999 -1.590539,1.99985 -1.055145,1.0685 z m 86.935998,-0.5611 c -0.40521,-0.5457 -0.86583,-1.16387 -1.02359,-1.37371 -0.21594,-0.2872 -0.20594,-0.33292 0.0405,-0.18494 0.34438,0.20684 2.02919,2.55084 1.83348,2.55084 -0.0625,0 -0.44514,-0.44649 -0.85035,-0.99219 z m -84.654188,-2.4474 c 0.263389,-0.29104 0.524157,-0.52916 0.579483,-0.52916 0.05533,0 -0.02685,0.23812 -0.182608,0.52916 -0.15576,0.29104 -0.416528,0.52917 -0.579482,0.52917 -0.162955,0 -0.08078,-0.23813 0.182607,-0.52917 z m 82.074938,-0.71038 c -0.55232,-0.6632 -0.92954,-1.2805 -0.83826,-1.37178 0.0913,-0.0913 0.33448,0.072 0.54044,0.36279 0.20596,0.29081 0.59139,0.76687 0.85652,1.05791 0.64908,0.71254 0.91979,1.19427 0.65958,1.17376 -0.11772,-0.009 -0.66595,-0.55948 -1.21828,-1.22268 z m -81.012462,-0.71401 c 0.249476,-0.38075 0.573484,-0.69227 0.720017,-0.69227 0.343635,0 -0.398827,1.12627 -0.839236,1.27308 -0.217622,0.0725 -0.175995,-0.13026 0.119219,-0.58081 z m 78.311622,-2.31606 c -0.51995,-0.45652 -1.07395,-1.0816 -1.23112,-1.38906 -0.15717,-0.30747 0.32363,0.0318 1.06845,0.75394 0.74481,0.72213 1.3542,1.34721 1.3542,1.38906 0,0.21069 -0.33247,2.7e-4 -1.19153,-0.75394 z m -75.548696,-0.5934 c 1.203513,-1.24721 1.511085,-1.48004 1.177935,-0.89167 -0.346749,0.61239 -1.295154,1.56788 -1.828337,1.842 -0.291041,0.14963 0.0016,-0.27802 0.650402,-0.95033 z m 2.40062,-2.21459 c 0.01209,-0.28857 1.314603,-1.19342 1.314603,-0.91325 0,0.26548 -0.87181,1.11169 -1.145312,1.11169 -0.09768,0 -0.173863,-0.0893 -0.169291,-0.19844 z m 69.709396,-0.33072 c -0.26339,-0.29105 -0.39308,-0.52917 -0.2882,-0.52917 0.37767,0 1.21424,0.55328 1.21424,0.80306 0,0.41518 -0.41298,0.29304 -0.92604,-0.27389 z m -67.758472,-1.28442 c 0.559945,-0.63065 0.686596,-0.68827 0.686596,-0.31239 0,0.1404 -0.26789,0.39585 -0.595312,0.56766 -0.592122,0.31072 -0.592611,0.30935 -0.09128,-0.25527 z m 66.310922,-0.0282 c -0.21406,-0.13538 -0.32033,-0.31503 -0.23614,-0.39921 0.0842,-0.0842 0.30368,0.0284 0.48776,0.25019 0.38169,0.45991 0.3085,0.50325 -0.25162,0.14902 z m -65.359743,-0.63939 c 0,-0.0549 0.20836,-0.2633 0.463021,-0.46302 0.419645,-0.32911 0.429004,-0.31975 0.0999,0.0999 -0.345643,0.44073 -0.562917,0.58089 -0.562917,0.36313 z m 62.123713,-1.70438 c -3.75636,-2.586661 -3.62816,-2.491648 -2.89426,-2.145089 1.60491,0.757869 6.28312,4.065619 5.55972,3.931029 -0.0542,-0.0101 -1.25366,-0.81376 -2.66546,-1.78594 z m -60.951682,0.77602 c 0.170902,-0.27652 3.350043,-2.40216 4.38422,-2.93137 1.143865,-0.585344 0.219675,0.118386 -2.202821,1.67735 -1.284311,0.82651 -2.265939,1.39082 -2.181399,1.25402 z m 5.201311,-3.271227 c 0.06135,-0.03638 2.043174,-1.963772 4.404061,-4.283092 2.360888,-2.319321 4.373989,-4.135483 4.473554,-4.035917 0.406146,0.406146 -7.962178,8.385155 -8.794287,8.385155 -0.107175,0 -0.144671,-0.02977 -0.08333,-0.06615 z m 50.908951,-0.514614 c -0.43656,-0.310198 -5.14634,-4.890333 -10.46618,-10.178077 -5.319843,-5.287744 -9.834296,-9.61408 -10.032123,-9.61408 -0.197826,0 -0.290504,-0.06918 -0.205954,-0.153728 0.384088,-0.38409 2.006201,1.092079 11.179257,10.173451 5.38427,5.330454 10.02771,9.833562 10.31875,10.006905 0.29104,0.173344 0.4101,0.3184 0.26458,0.322347 -0.14552,0.0039 -0.62177,-0.24662 -1.05833,-0.556818 z M 84.061901,80.303892 c 0,-0.136267 0.446485,-0.510795 0.992188,-0.832284 l 0.992188,-0.584527 -0.526206,0.582899 c -0.645981,0.715578 -1.45817,1.18006 -1.45817,0.833912 z m 3.571876,-2.15211 c 0.291041,-0.125065 0.70776,-0.227391 0.926041,-0.227391 0.250159,0 0.201253,0.08406 -0.132291,0.227391 -0.291042,0.125065 -0.707761,0.22739 -0.926042,0.22739 -0.250158,0 -0.201253,-0.08406 0.132292,-0.22739 z m 2.315104,-0.454092 c 0.400182,-0.06062 1.055026,-0.06062 1.455208,0 0.400182,0.06062 0.07276,0.110222 -0.727604,0.110222 -0.800365,0 -1.127787,-0.0496 -0.727604,-0.110222 z"
         id="path23"
         inkscape:connector-curvature="0" />
    </g>
  </g>
</svg>
